Coordinates
version=1
nRows=41
nColumns=38
inDegrees=no

Units are S.I. units (second, meters, Newtons, ...)
If the header above contains a line with 'inDegrees', this indicates whether rotational values are in degrees (yes) or radians (no).

endheader
time	pelvis_tilt	pelvis_list	pelvis_rotation	pelvis_tx	pelvis_ty	pelvis_tz	hip_flexion_r	hip_adduction_r	hip_rotation_r	knee_angle_r	ankle_angle_r	subtalar_angle_r	mtp_angle_r	hip_flexion_l	hip_adduction_l	hip_rotation_l	knee_angle_l	ankle_angle_l	subtalar_angle_l	mtp_angle_l	lumbar_extension	lumbar_bending	lumbar_rotation	arm_flex_r	arm_add_r	arm_rot_r	elbow_flex_r	pro_sup_r	wrist_flex_r	wrist_dev_r	arm_flex_l	arm_add_l	arm_rot_l	elbow_flex_l	pro_sup_l	wrist_flex_l	wrist_dev_l
0	0.111264	1.24268	-1.44717	0.434853	2.2313	1.09909	0.0175771	-0.0021858	-0.024473	1.14437	-0.23155	0	0	-0.232378	-0.124417	0.0624109	0.246689	-0.0464327	0	0	-0.46224	0.164053	-0.193002	0.598564	-0.544238	0.584192	1.2278	0.673004	0	0	0.288893	-0.401355	0.0162619	1.31156	0.296587	0	0
0.01	0.148602	1.24247	-1.48758	0.435859	2.22261	1.10047	0.0533044	-0.0196894	-0.0267821	1.15956	-0.225491	0	0	-0.275056	-0.0758908	0.114858	0.177576	-0.0498451	0	0	-0.470173	0.146217	-0.184893	0.590863	-0.541456	0.562968	1.22806	0.671018	0	0	0.308716	-0.404271	0.0320324	1.30083	0.310138	0	0
0.02	0.11493	1.23778	-1.44901	0.438985	2.21331	1.10208	0.059701	-0.00409092	-0.0326565	1.12065	-0.207528	0	0	-0.287064	-0.0897734	0.114058	0.182339	-0.0432748	0	0	-0.47978	0.161795	-0.184297	0.597478	-0.544435	0.562959	1.22894	0.671692	0	0	0.316706	-0.400854	0.0319986	1.29725	0.322571	0	0
0.03	0.0985194	1.23732	-1.4307	0.441568	2.20307	1.10266	0.0781756	0.000631439	-0.0384099	1.10056	-0.196638	0	0	-0.296428	-0.0965756	0.10928	0.18657	-0.0364508	0	0	-0.484097	0.169703	-0.185376	0.60395	-0.545139	0.565604	1.22938	0.675281	0	0	0.318805	-0.400427	0.0290303	1.29745	0.335918	0	0
0.04	0.0836967	1.24298	-1.41375	0.444102	2.19191	1.10268	0.101485	0.00408236	-0.0446936	1.0777	-0.188764	0	0	-0.299404	-0.102314	0.105088	0.191091	-0.0309657	0	0	-0.481034	0.175138	-0.186503	0.604386	-0.544993	0.563378	1.23024	0.67843	0	0	0.318299	-0.399108	0.0259806	1.29764	0.352447	0	0
0.05	0.120453	1.22387	-1.47453	0.444004	2.18024	1.10646	0.0952738	-0.00534639	-0.023645	1.04977	-0.178126	0	0	-0.33217	-0.0633064	-0.0547907	0.308958	0.0314523	0	0	-0.507876	0.156597	-0.168795	0.611815	-0.546249	0.567496	1.23045	0.672984	0	0	0.320939	-0.396971	0.0234845	1.30562	0.29957	0	0
0.06	0.105225	1.23481	-1.45449	0.446703	2.16848	1.10548	0.120773	-0.001164	-0.029675	1.02193	-0.167922	0	0	-0.326736	-0.069726	-0.054291	0.324415	0.0326998	0	0	-0.497665	0.162206	-0.170586	0.60707	-0.546975	0.561647	1.23259	0.67371	0	0	0.32061	-0.393543	0.0217989	1.30535	0.306849	0	0
0.07	0.1095	1.23559	-1.45923	0.448817	2.15729	1.10565	0.133674	-0.0031759	-0.028801	0.990698	-0.160069	0	0	-0.342125	-0.0642438	-0.0620893	0.285486	0.0286233	0	0	-0.500538	0.161609	-0.172135	0.611163	-0.546439	0.56369	1.23348	0.673844	0	0	0.319106	-0.394157	0.0185418	1.31026	0.300937	0	0
0.08	0.103978	1.23808	-1.45247	0.451037	2.14616	1.10504	0.147515	-0.00206829	-0.0291994	0.957261	-0.151586	0	0	-0.348457	-0.0661033	-0.0665523	0.291625	0.03054	0	0	-0.499905	0.164577	-0.173022	0.613535	-0.547567	0.564155	1.2349	0.674613	0	0	0.315707	-0.398338	0.0220597	1.31615	0.299447	0	0
0.09	0.0854391	1.24488	-1.42392	0.454165	2.13563	1.10329	0.164387	0.00123886	-0.0375201	0.920245	-0.140871	0	0	-0.335185	-0.0727615	-0.0398205	0.378755	-0.0409296	0	0	-0.493217	0.174858	-0.178418	0.613581	-0.550403	0.56148	1.23799	0.672657	0	0	0.312974	-0.408484	0.0366295	1.32214	0.302182	0	0
0.1	0.0816876	1.24141	-1.41978	0.456141	2.12515	1.10272	0.168422	0.00282397	-0.0332761	0.879548	-0.134697	0	0	-0.348782	-0.0751772	-0.0410687	0.383667	-0.0533854	0	0	-0.499014	0.177423	-0.176022	0.617802	-0.553793	0.562578	1.24035	0.670639	0	0	0.32065	-0.406597	0.0382973	1.31891	0.302897	0	0
0.11	0.0774978	1.25365	-1.41611	0.458036	2.11239	1.10099	0.186686	0.0023892	-0.0278909	0.83785	-0.1279	0	0	-0.347803	-0.0758537	-0.0445889	0.385196	-0.0528927	0	0	-0.487225	0.176013	-0.174434	0.609133	-0.553834	0.552716	1.24412	0.681277	0	0	0.313328	-0.41287	0.0448992	1.3118	0.398424	0	0
0.12	0.0726448	1.2565	-1.41149	0.459963	2.10082	1.09976	0.193064	0.00340796	-0.0227834	0.79048	-0.119504	0	0	-0.356245	-0.0777208	-0.0467209	0.386693	-0.0474157	0	0	-0.484986	0.177542	-0.169996	0.607579	-0.560258	0.551516	1.24912	0.675361	0	0	0.318535	-0.405482	0.0460081	1.31755	0.330312	0	0
0.13	0.0678306	1.25366	-1.40279	0.462429	2.0897	1.09904	0.18918	0.00338638	-0.0373108	0.727518	-0.0932116	0	0	-0.370076	-0.0810531	-0.0442148	0.387365	-0.0458655	0	0	-0.488458	0.180805	-0.16857	0.606533	-0.565089	0.54803	1.25259	0.673687	0	0	0.330496	-0.395047	0.0426083	1.30815	0.333245	0	0
0.14	0.0683517	1.25087	-1.40376	0.464068	2.07871	1.09785	0.186634	0.00341903	-0.0305158	0.675527	-0.083801	0	0	-0.384259	-0.0819039	-0.0465028	0.38916	-0.0447649	0	0	-0.49305	0.182122	-0.168052	0.612285	-0.566348	0.55097	1.25369	0.674121	0	0	0.328399	-0.402522	0.0491953	1.31153	0.348172	0	0
0.15	0.0679388	1.2603	-1.40336	0.465799	2.06597	1.09587	0.194708	0.00136611	-0.0254444	0.622293	-0.0725179	0	0	-0.386987	-0.0816137	-0.0472219	0.389899	-0.0439516	0	0	-0.483076	0.180029	-0.16616	0.606071	-0.56893	0.545932	1.25679	0.674445	0	0	0.324269	-0.403938	0.0548779	1.3151	0.344298	0	0
0.16	0.069041	1.2645	-1.40412	0.467447	2.0537	1.09407	0.195505	-1.5721e-05	-0.0202776	0.565752	-0.059319	0	0	-0.394702	-0.0818974	-0.0490883	0.391182	-0.0434129	0	0	-0.479933	0.179483	-0.165087	0.603348	-0.570741	0.54126	1.26116	0.6757	0	0	0.324275	-0.402516	0.0548992	1.317	0.338969	0	0
0.17	0.069364	1.26665	-1.40365	0.469099	2.04152	1.09234	0.191555	1.17666e-05	-0.0143096	0.504994	-0.0467531	0	0	-0.404424	-0.0830963	-0.0510994	0.39252	-0.0433088	0	0	-0.47611	0.179874	-0.169799	0.609036	-0.566617	0.547009	1.25579	0.677222	0	0	0.320619	-0.400941	0.0474122	1.31786	0.332445	0	0
0.18	0.0693615	1.26745	-1.40079	0.470886	2.02925	1.09072	0.183141	0.000495388	-0.0126088	0.439766	-0.0381044	0	0	-0.41534	-0.0856483	-0.0507987	0.394209	-0.043489	0	0	-0.474336	0.18051	-0.174153	0.611785	-0.563476	0.54857	1.2524	0.683611	0	0	0.319262	-0.400566	0.0418287	1.3096	0.390935	0	0
0.19	0.0724311	1.2609	-1.39943	0.472628	2.01758	1.0894	0.166045	0.000236696	-0.0169396	0.373849	-0.0318117	0	0	-0.433286	-0.0894609	-0.0502162	0.39714	-0.0432306	0	0	-0.480595	0.184394	-0.181363	0.624621	-0.563144	0.562891	1.24987	0.676341	0	0	0.305127	-0.500834	0.111434	1.30301	0.7602	0	0
0.2	0.0717766	1.26117	-1.39444	0.474363	2.00482	1.08762	0.15568	-0.000496603	-0.0256189	0.310786	-0.0263427	0	0	-0.443965	-0.0937435	-0.0513065	0.400841	-0.0434481	0	0	-0.478058	0.185598	-0.18429	0.624675	-0.563558	0.563939	1.24887	0.675975	0	0	0.304185	-0.498815	0.107283	1.30082	0.785177	0	0
0.21	0.0699215	1.25913	-1.38468	0.476469	1.99187	1.08603	0.137022	0.000395087	-0.0378717	0.237957	-0.0337538	0	0	-0.456334	-0.100559	-0.0513579	0.404793	-0.0445632	0	0	-0.477088	0.189336	-0.191235	0.62595	-0.563108	0.566593	1.24755	0.676296	0	0	0.302138	-0.496887	0.102653	1.30024	0.79418	0	0
0.22	0.0707172	1.25245	-1.38713	0.47545	1.97766	1.08554	0.109619	0.00812596	-0.0335818	0.159921	-0.0611745	0	0	-0.477841	-0.100252	-0.0572207	0.401839	-0.0504127	0	0	-0.481605	0.184855	-0.191241	0.625904	-0.555164	0.569142	1.24074	0.677014	0	0	0.298114	-0.501319	0.0999321	1.30151	0.788447	0	0
0.23	0.0748866	1.2557	-1.37382	0.480109	1.96516	1.08229	0.099181	0.00216223	-0.0596982	0.109504	-0.0661651	0	0	-0.479269	-0.112139	-0.0489591	0.417353	-0.0451471	0	0	-0.472507	0.193104	-0.208278	0.630055	-0.558764	0.576411	1.24142	0.675317	0	0	0.295528	-0.497875	0.0973469	1.3016	0.782823	0	0
0.24	0.0791199	1.25632	-1.37327	0.481313	1.95128	1.07994	0.0909147	0.00266948	-0.0700775	0.0821844	-0.0619732	0	0	-0.487699	-0.116523	-0.0515902	0.426454	-0.0451086	0	0	-0.467672	0.192359	-0.213733	0.629516	-0.556396	0.578652	1.23916	0.67766	0	0	0.29185	-0.49976	0.0963258	1.30218	0.781543	0	0
0.25	0.0834599	1.25741	-1.37398	0.482346	1.93717	1.07755	0.0868332	0.00320141	-0.0734692	0.0770942	-0.0554843	0	0	-0.49544	-0.120255	-0.0531044	0.435958	-0.0453991	0	0	-0.462867	0.191303	-0.217877	0.627844	-0.55442	0.579128	1.23837	0.680444	0	0	0.288439	-0.500202	0.09416	1.30247	0.778922	0	0
0.26	0.0839604	1.25699	-1.37164	0.483252	1.92307	1.07533	0.087581	0.00492637	-0.0746733	0.101497	-0.032852	0	0	-0.503504	-0.125584	-0.0546193	0.44791	-0.0446327	0	0	-0.458622	0.191462	-0.222088	0.630851	-0.552793	0.587127	1.23454	0.674501	0	0	0.285044	-0.49885	0.0886571	1.30111	0.775824	0	0
0.27	0.0811431	1.25366	-1.3649	0.484194	1.90902	1.07348	0.0880618	0.0083039	-0.0771823	0.143459	-0.0155294	0	0	-0.51312	-0.133436	-0.0537728	0.461738	-0.0453903	0	0	-0.457559	0.193378	-0.224734	0.630272	-0.551127	0.588061	1.23266	0.676763	0	0	0.285441	-0.497407	0.0866319	1.29805	0.773621	0	0
0.28	0.0762963	1.24843	-1.35459	0.485307	1.89485	1.07188	0.084907	0.013619	-0.0778743	0.187076	-0.00967159	0	0	-0.523052	-0.143451	-0.0502632	0.477966	-0.0467183	0	0	-0.458126	0.197515	-0.228759	0.63154	-0.550926	0.592403	1.23183	0.673015	0	0	0.282498	-0.500014	0.0883754	1.29876	0.772298	0	0
0.29	0.0724891	1.2464	-1.34667	0.48614	1.88022	1.07	0.0887802	0.0185489	-0.0754405	0.242028	0.0178248	0	0	-0.523599	-0.153133	-0.0490849	0.500554	-0.0507305	0	0	-0.455991	0.19996	-0.23049	0.622026	-0.545326	0.577212	1.23308	0.700732	0	0	0.280157	-0.502548	0.0920208	1.2996	0.76669	0	0
0.3	0.0637635	1.2451	-1.33159	0.487438	1.86491	1.06854	0.0864755	0.0263543	-0.0749315	0.267909	0.0131048	0	0	-0.523599	-0.165081	-0.0431498	0.522168	-0.0527878	0	0	-0.44947	0.203699	-0.235615	0.624858	-0.549605	0.593609	1.23024	0.673714	0	0	0.274863	-0.500028	0.088764	1.29717	0.768522	0	0
0.31	0.0572461	1.23554	-1.31928	0.488288	1.85073	1.0676	0.0818092	0.0351248	-0.0798104	0.299582	-0.00074444	0	0	-0.523599	-0.17975	-0.0426583	0.55523	-0.0555712	0	0	-0.45977	0.210703	-0.22597	0.590657	-0.543199	0.53022	1.24921	0.749161	0	0	0.29015	-0.49996	0.106985	1.29318	0.756876	0	0
0.32	0.0498757	1.23617	-1.31178	0.488697	1.83508	1.06654	0.0858053	0.0420674	-0.0768645	0.321967	-0.00475615	0	0	-0.523599	-0.187941	-0.0376206	0.580471	-0.0542712	0	0	-0.454315	0.209833	-0.216719	0.570412	-0.543252	0.506176	1.25408	0.765309	0	0	0.298409	-0.494662	0.117873	1.28391	0.75103	0	0
0.33	0.0364453	1.20852	-1.28519	0.488725	1.82089	1.06882	0.039761	0.0635257	-0.101108	0.279858	-0.126089	0	0	-0.523599	-0.209848	-0.0255885	0.612725	-0.103088	0	0	-0.471228	0.224699	-0.244278	0.624816	-0.543902	0.600921	1.22563	0.670426	0	0	0.275531	-0.498338	0.0801831	1.28744	0.772637	0	0
0.34	0.0282694	1.20872	-1.26938	0.491539	1.8061	1.06739	0.0349807	0.0659366	-0.117478	0.281282	-0.1529	0	0	-0.523599	-0.229143	-0.0266475	0.66195	-0.116283	0	0	-0.463617	0.231962	-0.24839	0.621357	-0.548507	0.601206	1.22715	0.67088	0	0	0.272854	-0.492628	0.0804269	1.28514	0.7721	0	0
0.35	0.0267983	1.20501	-1.27074	0.491067	1.79097	1.06734	0.0256125	0.0707916	-0.118156	0.284396	-0.172934	0	0	-0.523599	-0.236643	-0.0248671	0.705448	-0.12939	0	0	-0.464884	0.230907	-0.244519	0.619997	-0.546517	0.602635	1.22502	0.671369	0	0	0.269288	-0.491858	0.0778592	1.28445	0.770457	0	0
0.36	0.0268891	1.20144	-1.27549	0.490516	1.77625	1.06794	0.0183566	0.0738102	-0.113506	0.295155	-0.184701	0	0	-0.521649	-0.240889	-0.0189643	0.750327	-0.139645	0	0	-0.468205	0.229013	-0.238889	0.620215	-0.544819	0.604619	1.22245	0.67166	0	0	0.267215	-0.490277	0.0752353	1.28311	0.768869	0	0
0.37	0.0191162	1.19955	-1.27404	0.49009	1.76209	1.06881	0.02108	0.0776069	-0.1051	0.328096	-0.194527	0	0	-0.500648	-0.248691	-0.021363	0.809341	-0.164748	0	0	-0.470929	0.230186	-0.232303	0.624913	-0.543828	0.611267	1.21824	0.671134	0	0	0.2648	-0.48563	0.0688551	1.28142	0.764964	0	0
0.38	0.00972243	1.19664	-1.27039	0.489933	1.74852	1.07023	0.0253849	0.081591	-0.0992426	0.367947	-0.202116	0	0	-0.475676	-0.257444	-0.0217687	0.872343	-0.192052	0	0	-0.475962	0.233176	-0.225587	0.631358	-0.543657	0.618574	1.2143	0.669213	0	0	0.263914	-0.481357	0.0636913	1.27913	0.764361	0	0
0.39	-0.0501867	1.19481	-1.2152	0.490959	1.73414	1.06936	0.0347106	0.104629	-0.101286	0.401145	-0.211157	0	0	-0.41914	-0.323801	-0.10716	0.991442	-0.255926	0	0	-0.469744	0.258378	-0.217207	0.640292	-0.551288	0.633299	1.21538	0.667693	0	0	0.258372	-0.473407	0.0579196	1.27705	0.766228	0	0
0.4	-0.00838748	1.19271	-1.25941	0.490181	1.72202	1.07338	0.0275854	0.0890537	-0.106233	0.423163	-0.229213	0	0	-0.412308	-0.274159	-0.0111899	1.00478	-0.24467	0	0	-0.483446	0.239556	-0.21722	0.644837	-0.541686	0.633965	1.20445	0.668134	0	0	0.262793	-0.475967	0.0558836	1.27358	0.767567	0	0
